<?xml version="1.0" encoding="UTF-8" standalone="no"?>
<svg
   xmlns:dc="http://purl.org/dc/elements/1.1/"
   xmlns:cc="http://creativecommons.org/ns#"
   xmlns:rdf="http://www.w3.org/1999/02/22-rdf-syntax-ns#"
   xmlns:svg="http://www.w3.org/2000/svg"
   xmlns="http://www.w3.org/2000/svg"
   xmlns:sodipodi="http://sodipodi.sourceforge.net/DTD/sodipodi-0.dtd"
   xmlns:inkscape="http://www.inkscape.org/namespaces/inkscape"
   version="1.1"
   id="Layer_1"
   x="0px"
   y="0px"
   viewBox="0 0 2622 2622"
   enable-background="new 0 0 2622 1198"
   xml:space="preserve"
   sodipodi:docname="icon.svg"
   inkscape:version="0.92.3 (2405546, 2018-03-11)"
   width="2622"
   height="2622"><metadata
   id="metadata25"><rdf:RDF><cc:Work
       rdf:about=""><dc:format>image/svg+xml</dc:format><dc:type
         rdf:resource="http://purl.org/dc/dcmitype/StillImage" /><dc:title></dc:title></cc:Work></rdf:RDF></metadata><defs
   id="defs23"><linearGradient
     gradientTransform="translate(3545.0982,-330.95706)"
     id="SVGID_6_"
     gradientUnits="userSpaceOnUse"
     x1="327.6806"
     y1="961.95453"
     x2="467.6806"
     y2="33.954498"><stop
       offset="0"
       style="stop-color:#EDE928"
       id="stop59" /><stop
       offset="1"
       style="stop-color:#F37E31"
       id="stop61" /></linearGradient><linearGradient
     gradientTransform="translate(3545.0982,-330.95706)"
     id="SVGID_5_"
     gradientUnits="userSpaceOnUse"
     x1="649.13647"
     y1="1300.1323"
     x2="15.1366"
     y2="654.13232"><stop
       offset="0"
       style="stop-color:#C3D7FF"
       id="stop52" /><stop
       offset="1"
       style="stop-color:#00CBA5"
       id="stop54" /></linearGradient><linearGradient
     gradientTransform="translate(3545.0982,-330.95706)"
     id="SVGID_4_"
     gradientUnits="userSpaceOnUse"
     x1="1322.2429"
     y1="706.04993"
     x2="1162.2429"
     y2="1614.0498"><stop
       offset="0"
       style="stop-color:#FF49C1"
       id="stop33" /><stop
       offset="0.0965"
       style="stop-color:#F947C2"
       id="stop35" /><stop
       offset="0.2206"
       style="stop-color:#E943C6"
       id="stop37" /><stop
       offset="0.36"
       style="stop-color:#CF3BCD"
       id="stop39" /><stop
       offset="0.5105"
       style="stop-color:#AA31D6"
       id="stop41" /><stop
       offset="0.6699"
       style="stop-color:#7A23E1"
       id="stop43" /><stop
       offset="0.835"
       style="stop-color:#4113EF"
       id="stop45" /><stop
       offset="1"
       style="stop-color:#0000FF"
       id="stop47" /></linearGradient><linearGradient
     gradientTransform="translate(3545.0982,-330.95706)"
     id="SVGID_3_"
     gradientUnits="userSpaceOnUse"
     x1="980.23291"
     y1="339.82919"
     x2="1672.2721"
     y2="947.80048"><stop
       offset="0"
       style="stop-color:#8CC63F"
       id="stop16" /><stop
       offset="0.1085"
       style="stop-color:#90C03D"
       id="stop18" /><stop
       offset="0.2559"
       style="stop-color:#9AAE38"
       id="stop20" /><stop
       offset="0.4256"
       style="stop-color:#AA922E"
       id="stop22" /><stop
       offset="0.612"
       style="stop-color:#C16A22"
       id="stop24" /><stop
       offset="0.8095"
       style="stop-color:#DF3812"
       id="stop26" /><stop
       offset="1"
       style="stop-color:#FF0000"
       id="stop28" /></linearGradient><linearGradient
     gradientTransform="translate(3545.0982,-330.95706)"
     id="SVGID_2_"
     gradientUnits="userSpaceOnUse"
     x1="482.46069"
     y1="445.86731"
     x2="1354.4402"
     y2="167.58321"><stop
       offset="0"
       style="stop-color:#FFF33B"
       id="stop9" /><stop
       offset="1"
       style="stop-color:#E93E3A"
       id="stop11" /></linearGradient><linearGradient
     gradientTransform="translate(3545.0982,-330.95706)"
     id="SVGID_1_"
     gradientUnits="userSpaceOnUse"
     x1="1174.4011"
     y1="1199.5353"
     x2="302.40109"
     y2="1495.5353"><stop
       offset="0"
       style="stop-color:#8FD9FF"
       id="stop2" /><stop
       offset="1"
       style="stop-color:#005A97"
       id="stop4" /></linearGradient></defs><sodipodi:namedview
   pagecolor="#ffffff"
   bordercolor="#666666"
   borderopacity="1"
   objecttolerance="10"
   gridtolerance="10"
   guidetolerance="10"
   inkscape:pageopacity="0"
   inkscape:pageshadow="2"
   inkscape:window-width="1920"
   inkscape:window-height="1054"
   id="namedview21"
   showgrid="false"
   inkscape:zoom="0.12356979"
   inkscape:cx="830.18546"
   inkscape:cy="1452.3261"
   inkscape:window-x="0"
   inkscape:window-y="0"
   inkscape:window-maximized="1"
   inkscape:current-layer="g18" />

<g
   id="g858"><g
     transform="translate(0,724.0004)"
     id="g18">
	<path
   inkscape:connector-curvature="0"
   id="path2"
   d="m 2591,599 c 0,0 -573.0756,558.7166 -1280,558.7166 C 604.0756,1157.7166 31,599 31,599 31,599 604.0755,40.2834 1311,40.2834 2017.9245,40.2834 2591,599 2591,599 Z" />
	
</g><g
     transform="matrix(0.644998,0,0,0.64499822,-1507.6417,1004.4076)"
     id="g912"><path
       inkscape:connector-curvature="0"
       style="fill:url(#SVGID_1_)"
       d="m 4674.4416,854.60614 c 12.699,-133.3132 10.5593,-258.618 8.2264,-320.4229 l -143.7966,249.063 0.2117,0.3142 c -0.049,0.033 -0.2675,0.1794 -0.64,0.4279 l -0.493,0.8541 h -0.7924 c -17.7061,11.7334 -154.6073,101.3115 -316.7206,175.4233 -101.9248,46.59586 -193.8532,78.11616 -273.2319,93.68546 -51.2694,10.0562 -97.4708,13.4342 -138.3306,10.1848 144.3976,142.1157 342.5172,229.8083 561.1252,229.8083 60.0491,0 118.5476,-6.6301 174.8169,-19.1731 29.5822,-34.9309 54.8085,-82.5996 75.3447,-142.5306 25.5804,-74.6484 43.8428,-168.05806 54.2802,-277.63446 z"
       id="path7" /><path
       inkscape:connector-curvature="0"
       style="fill:url(#SVGID_2_)"
       d="m 4202.0496,203.04644 h 0.7925 c 17.7064,-11.7336 154.6073,-101.3115 316.7205,-175.423396 101.9248,-46.5958 193.853,-78.1162 273.2318,-93.6854 51.2694,-10.0563 97.4708,-13.4343 138.3307,-10.1849 -144.3977,-142.115604 -342.5173,-229.808204 -561.1253,-229.808204 -60.0491,0 -118.5476,6.6301 -174.817,19.173 -29.582,34.9311 -54.8083,82.5997 -75.3447,142.5306 -25.5801,74.648404 -43.8427,168.058304 -54.2801,277.6346 -12.699,133.3133 -10.5593,258.618 -8.2264,320.423 l 143.7965,-249.063 -0.2115,-0.3142 c 0.049,-0.0328 0.2673,-0.1794 0.6399,-0.4278 z"
       id="path14-3" /><path
       inkscape:connector-curvature="0"
       style="fill:url(#SVGID_3_)"
       d="m 4797.6998,-41.850056 c -77.4375,15.1711 -167.4641,46.0602004 -267.5786,91.8093 C 4408.319,105.61824 4300.8719,170.12364 4248.5137,203.04644 h 287.593 l 0.1664,-0.3403 c 0.053,0.0258 0.2892,0.1418 0.6906,0.3403 h 0.9865 l 0.396,0.6862 c 19.0148,9.4673 165.042,83.2381 310.2813,186.5763 91.3157,64.9715 164.5774,128.8236 217.75,189.783 34.4314,39.4731 60.5011,77.8907 78.1187,114.9888 16.6426,-64.2667 25.5039,-131.6661 25.5039,-201.1362 0,-209.0386 -80.1853,-399.341596 -211.4622,-541.855596 -44.9883,-8.097 -98.7913,-6.0954 -160.8381,6.061 z"
       id="path31" /><path
       inkscape:connector-curvature="0"
       style="fill:url(#SVGID_4_)"
       d="m 5047.8614,596.44624 c -51.8573,-59.4773 -123.6213,-121.998 -213.2986,-185.8253 -109.103,-77.6543 -218.6899,-138.4536 -273.3811,-167.3357 l 143.7966,249.063 0.3779,-0.0261 c 0,0.0587 0.022,0.3212 0.051,0.7682 l 0.493,0.8542 -0.3961,0.6861 c 1.3085,21.2008 10.4347,184.5495 -6.4392,361.9997 -10.6091,111.5674 -29.2759,206.93976 -55.4819,283.46846 -16.969,49.5552 -37.2048,91.3409 -60.5239,125.1475 261.8225,-72.1638 469.8518,-274.05796 550.5939,-532.20796 -15.4537,-43.1067 -44.1329,-88.8135 -85.7911,-136.5921 z"
       id="path50" /><path
       inkscape:connector-curvature="0"
       style="fill:url(#SVGID_5_)"
       d="m 3942.2998,1029.7389 c 77.4375,-15.1711 167.4641,-46.06016 267.5786,-91.80916 121.8022,-55.6591 229.2494,-120.1644 281.6077,-153.0873 H 4203.893 l -0.1664,0.3403 c -0.053,-0.026 -0.2892,-0.1418 -0.6906,-0.3403 h -0.9865 l -0.396,-0.6862 c -19.0148,-9.4673 -165.042,-83.2382 -310.2813,-186.5763 -91.3156,-64.9715 -164.5772,-128.8236 -217.7499,-189.783 -34.4315,-39.473 -60.5012,-77.8906 -78.1188,-114.9888 -16.6425,64.2668 -25.5037,131.6663 -25.5037,201.1364 0,209.0385 80.1852,399.3416 211.4622,541.85546 44.988,8.0971 98.791,6.0954 160.8378,-6.0611 z"
       id="path57" /><path
       inkscape:connector-curvature="0"
       style="fill:url(#SVGID_6_)"
       d="m 3692.1382,391.44274 c 51.8573,59.4772 123.6213,121.998 213.2984,185.8253 109.1033,77.6542 218.6902,138.4536 273.3813,167.3357 l -143.7967,-249.0629 -0.3779,0.026 c 0,-0.0586 -0.022,-0.3212 -0.051,-0.7681 l -0.4931,-0.8542 0.3961,-0.6862 c -1.3083,-21.2006 -10.4347,-184.5494 6.4392,-361.9998 10.6092,-111.567296 29.2759,-206.939696 55.482,-283.4684 16.969,-49.5551 37.2048,-91.341 60.5239,-125.1474 -261.8225,72.1639 -469.8518,274.0580044 -550.5938,532.2081 15.4537,43.1067 44.1329,88.8133 85.7911,136.5919 z"
       id="path64" /></g></g></svg>