<?xml version="1.0" encoding="utf-8"?>
<!DOCTYPE svg PUBLIC "-//W3C//DTD SVG 1.1//EN" "http://www.w3.org/Graphics/SVG/1.1/DTD/svg11.dtd">
<svg version="1.1" id="Layer_1" xmlns="http://www.w3.org/2000/svg" xmlns:xlink="http://www.w3.org/1999/xlink" x="0px" y="0px"
	 viewBox="0 0 1614.1002 1614.1002" enable-background="new 0 0 1614.1002 1614.1002" xml:space="preserve">
<g>
	<path d="M1111.4918,1167.7117c12.699-133.3132,10.5593-258.6179,8.2264-320.4229l-143.7966,249.063l0.2117,0.3142
		c-0.0488,0.0328-0.2675,0.1794-0.64,0.4279l-0.493,0.8541h-0.7924c-17.7061,11.7334-154.6073,101.3115-316.7206,175.4233
		c-101.9248,46.5959-193.8531,78.1162-273.2319,93.6855c-51.2694,10.0562-97.4708,13.4342-138.3306,10.1848
		C390.3226,1519.3574,588.4421,1607.05,807.0501,1607.05c60.0491,0,118.5476-6.6301,174.8169-19.1731
		c29.5822-34.9309,54.8084-82.5996,75.3447-142.5306C1082.792,1370.6978,1101.0544,1277.2881,1111.4918,1167.7117z"/>
	<path d="M639.0999,516.152h0.7925c17.7064-11.7336,154.6073-101.3115,316.7205-175.4233
		c101.9247-46.5958,193.853-78.1162,273.2318-93.6854c51.2694-10.0563,97.4708-13.4343,138.3307-10.1849
		C1223.7776,94.7427,1025.6581,7.0501,807.0501,7.0501c-60.0491,0-118.5476,6.6301-174.817,19.173
		c-29.582,34.9311-54.8083,82.5997-75.3447,142.5306c-25.5801,74.6484-43.8427,168.0583-54.2801,277.6346
		c-12.699,133.3133-10.5593,258.618-8.2264,320.423l143.7965-249.063l-0.2115-0.3142c0.0487-0.0328,0.2673-0.1794,0.6399-0.4278
		L639.0999,516.152z"/>
	<path d="M1234.75,271.2556c-77.4375,15.1711-167.4641,46.0602-267.5786,91.8093
		c-121.8022,55.659-229.2493,120.1644-281.6075,153.0872h287.593l0.1664-0.3403c0.0529,0.0258,0.2892,0.1418,0.6906,0.3403h0.9865
		l0.396,0.6862c19.0148,9.4673,165.0419,83.2381,310.2812,186.5763c91.3157,64.9715,164.5774,128.8236,217.75,189.783
		c34.4314,39.4731,60.5011,77.8907,78.1187,114.9889c16.6426-64.2667,25.5039-131.6661,25.5039-201.1363
		c0-209.0386-80.1853-399.3416-211.4622-541.8555C1350.5999,257.0975,1296.7969,259.0991,1234.75,271.2556z"/>
	<path d="M1484.9116,909.5518c-51.8573-59.4773-123.6213-121.998-213.2986-185.8253
		c-109.103-77.6543-218.6899-138.4536-273.381-167.3357l143.7966,249.063l0.3779-0.0261c0.004,0.0587,0.0217,0.3212,0.0505,0.7682
		l0.493,0.8542l-0.3961,0.6861c1.3085,21.2008,10.4347,184.5495-6.4392,361.9996
		c-10.6091,111.5674-29.2759,206.9398-55.4819,283.4685c-16.969,49.5552-37.2048,91.3409-60.5239,125.1475
		c261.8224-72.1638,469.8517-274.058,550.5938-532.208C1555.249,1003.0372,1526.5698,957.3304,1484.9116,909.5518z"/>
	<path d="M379.3502,1342.8445c77.4375-15.1711,167.4641-46.0602,267.5786-91.8092
		c121.8022-55.6591,229.2494-120.1644,281.6077-153.0873H640.9433l-0.1664,0.3403c-0.0529-0.0259-0.2892-0.1418-0.6906-0.3403
		h-0.9865l-0.396-0.6862c-19.0148-9.4673-165.042-83.2381-310.2813-186.5762c-91.3156-64.9715-164.5772-128.8236-217.7499-189.783
		c-34.4315-39.473-60.5012-77.8906-78.1188-114.9888C15.9113,670.1805,7.0501,737.58,7.0501,807.0501
		c0,209.0385,80.1852,399.3415,211.4622,541.8554C263.5004,1357.0027,317.3033,1355.001,379.3502,1342.8445z"/>
	<path d="M129.1885,704.5483c51.8573,59.4772,123.6213,121.998,213.2985,185.8253
		c109.1033,77.6542,218.6901,138.4536,273.3813,167.3356L472.0715,808.6464l-0.3779,0.026
		c-0.004-0.0586-0.0217-0.3212-0.0505-0.7681l-0.4931-0.8542l0.3961-0.6862c-1.3083-21.2006-10.4347-184.5494,6.4392-361.9998
		c10.6092-111.5673,29.2759-206.9398,55.482-283.4684c16.969-49.5551,37.2048-91.341,60.5239-125.1474
		C332.1688,107.9122,124.1394,309.8063,43.3974,567.9564C58.8511,611.063,87.5303,656.7697,129.1885,704.5483z"/>
</g>
</svg>
